<svg width="36" height="34" viewBox="0 0 36 34" fill="none" xmlns="http://www.w3.org/2000/svg">
<path fill-rule="evenodd" clip-rule="evenodd" d="M13.9621 22.8949L14.0032 22.8958C14.9371 22.9158 15.6597 23.3423 16.1615 23.8079C16.6438 24.2554 17.0047 24.8101 17.2827 25.3218C17.7769 26.2315 18.2012 27.3821 18.5768 28.4004C18.6184 28.5133 18.6594 28.6245 18.6998 28.7335C19.1394 29.919 19.5279 30.9032 19.9576 31.5916C20.1987 31.978 20.3574 32.121 20.4246 32.1684C20.5024 32.1603 20.5552 32.1361 20.6174 32.0896C20.7247 32.0093 20.9281 31.8026 21.1558 31.3139C21.6275 30.3017 22.0121 28.5031 22.1412 25.5801C22.2716 22.6293 23.323 20.5833 24.1784 18.9188C24.3172 18.6489 24.4507 18.389 24.5743 18.137C25.4199 16.4131 26.031 14.736 25.4069 11.7423C25.1369 10.4476 24.5703 9.87545 23.9844 9.56444C23.3035 9.20303 22.3266 9.05578 21.064 9.1245C19.8206 9.19218 18.5094 9.45479 17.2718 9.72856C17.1123 9.76385 16.9511 9.79997 16.7907 9.83594C16.3558 9.9334 15.9261 10.0297 15.5478 10.1053C15.0528 10.2042 14.475 10.3047 13.9621 10.3047C13.4491 10.3047 12.8713 10.2042 12.3763 10.1053C11.9979 10.0297 11.5681 9.9334 11.1332 9.83593C10.9727 9.79997 10.8116 9.76386 10.6521 9.72857C9.41446 9.4548 8.10318 9.1922 6.8597 9.12452C5.59709 9.0558 4.6202 9.20305 3.93942 9.56445C3.35361 9.87542 2.787 10.4476 2.5171 11.7422C1.89278 14.736 2.50381 16.4132 3.34925 18.137C3.47293 18.3892 3.60653 18.6491 3.74529 18.9192C4.60062 20.5835 5.65199 22.6294 5.78264 25.5799C5.91162 28.5028 6.29642 30.3016 6.76818 31.3138C6.99595 31.8025 7.19933 32.0093 7.30668 32.0896C7.36887 32.1362 7.42163 32.1603 7.49926 32.1684C7.56644 32.121 7.72517 31.978 7.9663 31.5916C8.39593 30.9032 8.78448 29.9191 9.22409 28.7336C9.26452 28.6246 9.30551 28.5134 9.34711 28.4006C9.72273 27.3822 10.1471 26.2316 10.6414 25.3219C10.9194 24.8101 11.2804 24.2554 11.7627 23.8079C12.2646 23.3423 12.9871 22.9158 13.9209 22.8958L13.9621 22.8949ZM7.56592 33.9456C5.52111 33.9451 4.20296 31.6264 3.93947 25.6553C3.82647 23.1035 2.95506 21.3986 2.10728 19.7399C0.971164 17.5171 -0.122523 15.3773 0.708256 11.3935C1.84661 5.9331 7.85992 7.2807 11.5741 8.11307C12.592 8.34117 13.4372 8.53058 13.9621 8.53058C14.4868 8.53058 15.3319 8.34119 16.3496 8.11309C20.0636 7.28072 26.077 5.93299 27.2158 11.3935C28.0463 15.377 26.9526 17.5168 25.8165 19.7395C24.9686 21.3983 24.0972 23.1033 23.9844 25.6553C23.7208 31.6264 22.4033 33.9451 20.3579 33.9456C18.6673 33.9458 17.7349 31.4217 16.8429 29.0068C16.0301 26.8066 15.2508 24.697 13.9621 24.6694C12.6732 24.6971 11.8938 26.8068 11.081 29.0071C10.1889 31.4219 9.34711 33.9456 7.56592 33.9456Z" fill="#222222"/>
<path fill-rule="evenodd" clip-rule="evenodd" d="M25.8568 17.4017L27.1173 16.7925L28.913 20.508L29.0634 20.6784C29.1992 20.8321 29.393 21.0508 29.6246 21.3107C30.0881 21.8308 30.7021 22.5147 31.3061 23.1723C31.6667 23.5649 32.1564 24.3087 32.6507 25.1707C33.1546 26.0494 33.6934 27.1045 34.1475 28.1555C34.5983 29.1992 34.9801 30.2723 35.1497 31.1779C35.2341 31.6285 35.274 32.078 35.2223 32.4796C35.171 32.8786 35.0152 33.3226 34.6205 33.6182C34.2457 33.8989 33.8131 33.9981 33.3748 33.9198C32.9649 33.8466 32.5992 33.6281 32.2879 33.3687C31.6687 32.8529 31.0829 32.0218 30.5653 31.094C29.5202 29.2209 28.6124 26.6957 28.2178 24.6926L28.2153 24.6798L27.6492 21.1104L25.8568 17.4017ZM29.3895 23.1459L29.5939 24.4346C29.9622 26.2954 30.8185 28.6745 31.7878 30.4118C32.2784 31.2912 32.7637 31.943 33.1839 32.2931C33.3923 32.4667 33.5385 32.5269 33.6209 32.5416C33.6736 32.551 33.713 32.5476 33.7767 32.501C33.7854 32.4895 33.816 32.4392 33.8338 32.301C33.8591 32.1038 33.8449 31.816 33.7736 31.4356C33.632 30.6795 33.2967 29.7165 32.8622 28.7107C32.4309 27.7123 31.9163 26.7043 31.4362 25.8671C30.9465 25.0131 30.5217 24.388 30.275 24.1194C29.9755 23.7933 29.674 23.4613 29.3895 23.1459ZM33.7744 32.5038L33.7757 32.5022L33.7744 32.5038Z" fill="#222222"/>
<path fill-rule="evenodd" clip-rule="evenodd" d="M22.5607 16.5626C26.426 16.5626 29.5595 13.4292 29.5595 9.56385C29.5595 5.69854 26.426 2.56509 22.5607 2.56509C18.6954 2.56509 15.5619 5.69854 15.5619 9.56385C15.5619 13.4292 18.6954 16.5626 22.5607 16.5626ZM22.5607 18.1626C27.3097 18.1626 31.1595 14.3128 31.1595 9.56385C31.1595 4.81488 27.3097 0.965088 22.5607 0.965088C17.8117 0.965088 13.9619 4.81488 13.9619 9.56385C13.9619 14.3128 17.8117 18.1626 22.5607 18.1626Z" fill="#222222"/>
</svg>
