<svg width="18" height="19" viewBox="0 0 18 19" fill="none" xmlns="http://www.w3.org/2000/svg">
<path d="M8.85708 11.4836L8.87183 11.4839C9.30163 11.4937 9.64422 11.7 9.89963 11.9508C10.1485 12.195 10.3474 12.5115 10.5129 12.8338C10.8097 13.4119 11.0675 14.1508 11.3106 14.8477C11.3368 14.9226 11.3627 14.997 11.3886 15.0707C11.6664 15.8635 11.9315 16.5823 12.2388 17.1031C12.5625 17.6519 12.8001 17.7581 12.946 17.7581L8.85708 11.4836ZM8.85708 11.4836L8.84233 11.4839M8.85708 11.4836L8.84233 11.4839M8.84233 11.4839C8.41253 11.4937 8.06994 11.7001 7.81452 11.9508M8.84233 11.4839L7.81452 11.9508M14.6153 12.7735L14.6153 12.7735C14.6934 10.9038 15.3118 9.62765 15.8569 8.50264C15.9472 8.3162 16.0355 8.13391 16.119 7.95376C16.6923 6.71723 17.1222 5.45792 16.693 3.27969C16.4925 2.26268 16.0438 1.72913 15.5165 1.433C14.9566 1.11857 14.2176 1.0212 13.3684 1.0701C12.5256 1.11863 11.6498 1.3057 10.8568 1.49128C10.7509 1.51607 10.6455 1.54107 10.5415 1.56572C10.2658 1.6311 10.0006 1.69397 9.76538 1.74369C9.4497 1.81041 9.12658 1.86753 8.85706 1.86753C8.58752 1.86753 8.26438 1.81041 7.94866 1.7437C7.71338 1.69397 7.44815 1.63109 7.17237 1.5657C7.06844 1.54106 6.96302 1.51607 6.85713 1.49129C6.06413 1.30571 5.1883 1.11864 4.34548 1.07011C3.4962 1.02121 2.75725 1.11859 2.19741 1.43301C1.67015 1.72913 1.22145 2.26266 1.02104 3.27965L1.02104 3.27968C0.591666 5.45794 1.02152 6.71726 1.59474 7.95377C1.67829 8.134 1.76665 8.31637 1.85702 8.50289C2.40206 9.62782 3.02035 10.9039 3.0986 12.7734L3.0986 12.7735C3.1819 14.7706 3.43113 16.0735 3.7762 16.8567C3.94606 17.2423 4.12347 17.4654 4.28108 17.5902C4.42797 17.7065 4.58252 17.7581 4.76781 17.7581L14.6153 12.7735ZM14.6153 12.7735C14.532 14.7706 14.2828 16.0735 13.9378 16.8568M14.6153 12.7735L13.9378 16.8568M13.9378 16.8568C13.768 17.2423 13.5906 17.4654 13.433 17.5902M13.9378 16.8568L13.433 17.5902M13.433 17.5902C13.2861 17.7064 13.1315 17.7581 12.9461 17.7581L13.433 17.5902ZM7.81452 11.9508C7.56566 12.1951 7.36671 12.5115 7.20119 12.8338M7.81452 11.9508L7.20119 12.8338M7.20119 12.8338C6.90428 13.412 6.64647 14.1509 6.40332 14.8478M7.20119 12.8338L6.40332 14.8478M6.40332 14.8478C6.37719 14.9227 6.35123 14.9971 6.32541 15.0708M6.40332 14.8478L6.32541 15.0708M6.32541 15.0708C6.04756 15.8635 5.7824 16.5824 5.47519 17.1032M6.32541 15.0708L5.47519 17.1032M5.47519 17.1032C5.15146 17.652 4.91382 17.7581 4.76789 17.7581L5.47519 17.1032Z" stroke="white" stroke-width="1.3"/>
</svg>
