<svg width="17" height="18" viewBox="0 0 17 18" fill="none" xmlns="http://www.w3.org/2000/svg">
<path fill-rule="evenodd" clip-rule="evenodd" d="M8.50009 10.6453L8.52529 10.6459C9.10292 10.6593 9.54396 10.943 9.8456 11.2447C10.1371 11.5362 10.3566 11.8989 10.5277 12.2383C10.833 12.8442 11.0958 13.6121 11.3322 14.3028C11.3582 14.3788 11.3839 14.4539 11.4093 14.5278C11.6845 15.3277 11.9325 16.0069 12.2099 16.486C12.3902 16.7974 12.5058 16.8931 12.546 16.9189C12.6063 16.9143 12.6505 16.8959 12.7042 16.8526C12.7861 16.7865 12.9243 16.6299 13.074 16.2838C13.3814 15.5728 13.6238 14.3321 13.7051 12.3485L13.7051 12.3485C13.7854 10.3884 14.4305 9.03433 14.9671 7.90803C15.0546 7.72432 15.1392 7.54668 15.2181 7.37345C15.7567 6.18983 16.1518 5.01966 15.7515 2.95006C15.5736 2.03067 15.1947 1.61572 14.8079 1.39442C14.369 1.14328 13.7482 1.04464 12.9551 1.09116C12.1722 1.1371 11.3471 1.31528 10.5703 1.50052C10.4699 1.52445 10.3686 1.54892 10.2679 1.57327C9.99512 1.63916 9.72609 1.70415 9.48913 1.75518C9.17876 1.82201 8.81881 1.88939 8.50009 1.88939C8.18135 1.88939 7.82138 1.82201 7.51097 1.75518C7.27397 1.70415 7.00489 1.63915 6.73211 1.57326C6.63134 1.54892 6.53007 1.52446 6.42973 1.50053C5.65283 1.31529 4.82776 1.13711 4.04479 1.09118C3.25171 1.04465 2.63093 1.1433 2.19205 1.39443C1.80533 1.61571 1.42644 2.03061 1.24862 2.94999L1.24861 2.95005C0.848195 5.0197 1.24323 6.18989 1.78177 7.37348C1.86061 7.54677 1.94528 7.72449 2.03283 7.90827C2.56936 9.03449 3.21441 10.3885 3.29493 12.3484L3.29493 12.3485C3.37614 14.332 3.61867 15.5727 3.9261 16.2837C4.07577 16.6299 4.21399 16.7865 4.29596 16.8526C4.34963 16.8959 4.39378 16.9143 4.45399 16.9189C4.49424 16.8931 4.60981 16.7974 4.79009 16.486C5.06751 16.0069 5.31555 15.3277 5.59074 14.5278C5.61613 14.454 5.64181 14.3789 5.66782 14.303C5.90422 13.6122 6.16706 12.8442 6.47246 12.2383C6.64355 11.8989 6.8631 11.5362 7.15461 11.2447C7.45626 10.943 7.8973 10.6593 8.47489 10.6459L8.50009 10.6453ZM4.43806 16.9273C4.43805 16.9272 4.43954 16.9264 4.44256 16.9255C4.43958 16.9269 4.43807 16.9274 4.43806 16.9273ZM4.48639 18C3.20324 17.9997 2.37607 16.4313 2.21073 12.3925C2.13982 10.6664 1.59299 9.51323 1.06099 8.3913C0.348059 6.88781 -0.338249 5.44046 0.18308 2.74583C0.897416 -0.947531 4.67088 -0.0360212 7.00162 0.526986C7.64034 0.681275 8.17071 0.809391 8.50009 0.809391C8.82939 0.809391 9.35968 0.681285 9.99832 0.527004C12.3289 -0.03601 16.1024 -0.947604 16.817 2.74583C17.3382 5.4403 16.6519 6.88764 15.939 8.39103C15.4069 9.51305 14.86 10.6663 14.7893 12.3925C14.6238 16.4313 13.7971 17.9997 12.5136 18C11.4527 18.0001 10.8676 16.2928 10.3078 14.6594C9.79783 13.1712 9.30882 11.7443 8.50012 11.7256C7.69132 11.7444 7.20224 13.1714 6.69217 14.6596C6.13234 16.293 5.54723 18.0001 4.48639 18ZM12.5575 16.9255C12.5605 16.9264 12.562 16.9272 12.562 16.9273C12.5619 16.9274 12.5604 16.9269 12.5575 16.9255Z" fill="white"/>
</svg>
