<svg width="13" height="90" viewBox="0 0 13 90" fill="none" xmlns="http://www.w3.org/2000/svg">
<path d="M0 80.0038L6.5 90L13 80.0038H7.84879V78.0074H5.90145V80.0038H0Z" fill="#222222"/>
<path d="M5.90145 66.8635L5.90145 72.4354H7.84879L7.84879 66.8635H5.90145Z" fill="#222222"/>
<path d="M5.90145 55.7196L5.90145 61.2915H7.84879V55.7196H5.90145Z" fill="#222222"/>
<path d="M5.90145 44.5756V50.1476H7.84879V44.5756H5.90145Z" fill="#222222"/>
<path d="M5.90145 33.4317L5.90145 39.0037H7.84879V33.4317H5.90145Z" fill="#222222"/>
<path d="M5.90145 22.2878V27.8598H7.84879L7.84879 22.2878H5.90145Z" fill="#222222"/>
<path d="M5.90145 11.1439V16.7159H7.84879V11.1439H5.90145Z" fill="#222222"/>
<path d="M5.90145 0V5.57195H7.84879L7.84879 0H5.90145Z" fill="#222222"/>
</svg>
